<?xml version="1.0" encoding="utf-8"?>

<!-- Uploaded to: SVG Repo, www.svgrepo.com, Generator: SVG Repo Mixer Tools -->
<svg fill="#000000" height="800px" width="800px" version="1.1" id="Icons" xmlns="http://www.w3.org/2000/svg" xmlns:xlink="http://www.w3.org/1999/xlink" 
	 viewBox="0 0 32 32" xml:space="preserve">
<g>
	<path d="M29.3,10.1c-0.4-0.1-0.8,0-1.1,0.3l-3.2,4c-1.7-2-5.9-6.4-11-6.4c-0.2,0-0.3,0-0.5,0c1.4,2.4,2.1,5.1,2.1,8
		c0,2.8-0.7,5.6-2.1,8c0.2,0,0.3,0,0.5,0c5.1,0,9.3-4.3,11-6.4l3.2,4c0.2,0.2,0.5,0.4,0.8,0.4c0.1,0,0.2,0,0.3-0.1
		c0.4-0.1,0.7-0.5,0.7-0.9V11C30,10.6,29.7,10.2,29.3,10.1z"/>
	<path d="M11.4,8.4c-5.2,1.5-9,6.8-9.2,7c-0.2,0.3-0.2,0.8,0,1.2c0.2,0.3,4,5.6,9.2,7c1.5-2.3,2.2-4.9,2.2-7.6
		C13.6,13.3,12.8,10.6,11.4,8.4z M10,16c0,0.6-0.4,1-1,1s-1-0.4-1-1v-2c0-0.6,0.4-1,1-1s1,0.4,1,1V16z"/>
</g>
</svg>